<?xml version="1.0" encoding="UTF-8" standalone="no"?>
<!-- Created with Inkscape (http://www.inkscape.org/) -->

<svg
   width="234.38399mm"
   height="233.4966mm"
   viewBox="0 0 234.38399 233.4966"
   version="1.1"
   id="svg1"
   xml:space="preserve"
   xmlns="http://www.w3.org/2000/svg"
   xmlns:svg="http://www.w3.org/2000/svg"><defs
     id="defs1" /><g
     id="layer1"
     transform="translate(-75.52401,4.900795)"><g
       id="g7"><g
         id="g6"
         transform="matrix(3.436537,0,0,3.436537,-469.55966,-272.52054)"><circle
           style="fill:#000000;fill-rule:evenodd;stroke:none;stroke-width:0.103801;stroke-miterlimit:0;stroke-dasharray:none"
           id="path3"
           cx="192.10878"
           cy="112.75578"
           r="32.518883" /><path
           id="path2"
           style="fill:#ffffff;fill-rule:evenodd;stroke:none;stroke-width:0.100458;stroke-dasharray:none"
           d="m 192.71574,77.874833 c -18.83379,6.4e-5 -34.10155,15.408385 -34.10151,34.415467 0.84514,19.68322 15.32056,33.74715 33.87947,33.52731 8.53258,8e-5 15.43387,-3.39541 21.72343,-9.21442 -0.256,0.20627 -0.51091,0.40793 -0.76481,0.60505 -7.30687,5.67278 -13.78341,7.59096 -21.6003,7.69125 -17.17164,1.1e-4 -31.35847,-15.5635 -31.35831,-32.79005 1.2e-4,-17.226348 13.92041,-31.190972 31.09186,-31.190865 17.17145,-1.04e-4 31.09173,13.964518 31.09185,31.190865 7e-5,5.05641 -1.22524,10.03704 -3.57035,14.51281 l -9.77311,-6.39961 -2.50013,4.06641 9.96742,6.06837 3.51816,2.14199 c 4.22389,-5.8761 6.49843,-12.94966 6.49836,-20.20911 4e-5,-19.007288 -15.26804,-34.415695 -34.10203,-34.415467 z" /><path
           id="path4"
           style="fill:#ffffff;fill-rule:evenodd;stroke:none;stroke-width:0.1;stroke-miterlimit:0;stroke-dasharray:none"
           d="m 174.27276,103.57509 6.04183,3.69005 5.2041,24.16833 2.15336,1.52221 0.72103,-20.75636 8.64343,5.27912 1.18651,6.81912 1.79424,1.26835 2.57009,-6.82722 5.57877,-4.70036 -1.79425,-1.26835 -6.8243,1.15626 -7.86011,-6.38725 18.96306,-7.802311 -2.3976,-1.651169 -24.25925,3.20143 -5.14685,-4.182447 c -2.11544,-1.600845 -6.08951,-1.55127 -7.07467,-0.08217 -0.94271,1.405782 0.29538,5.098837 2.50061,6.552767 z" /></g></g></g></svg>
